<?xml version="1.0" encoding="utf-8"?>
<svg xmlns="http://www.w3.org/2000/svg" height="1024" viewBox="0 0 1024 1024" width="1024">
<path d="M777.5 259.65 c-32.42 2.73 -56.36 9.23 -84.16 22.85 -14.39 7.05 -15.22 7.62&#xA;-16.43 11.22 -.7 2.08 -1.34 5.81 -1.43 8.29 -.26 7.02 -3.02 20.66 -4.71&#xA;23.24 -2.5 3.82 -6.76 15.22 -6.76 18.09 0 1.47 -2.02 6.92 -4.5 12.11 -2.48&#xA;5.19 -4.5 10 -4.5 10.69 0 .69 1.18 2.49 2.63 3.99 l2.63 2.74 4.53 -5.69&#xA;c25.61 -32.16 65.57 -53.19 110.43 -58.12 5.34 -.59 15.59 -1.07 22.77 -1.07&#xA;l13.06 0 -.27 -24.25 -.27 -24.25 -14.5 -.09 c-7.98 -.05 -16.3 .06 -18.5 .24z&#xA;M775.66 352.6 c-48.79 8.82 -92.27 49.13 -104.9 97.27 -3.03 11.55 -3.06&#xA;11.89 -3.76 46.63 -.79 39.37 -1.42 43.54 -8.87 59 -9.72 20.18 -24.23 32.49&#xA;-43.73 37.09 -8.14 1.92 -25.09 1.46 -32.59 -.89 -4.53 -1.42 -4.76 -1.39&#xA;-6.87 .86 l-2.18 2.32 2.22 3.59 c2.39 3.87 2.39 7.28 -.04 17.03 -1.38 5.55&#xA;-1.31 15.94 .12 18.62 1.24 2.32 9.17 3.38 24.93 3.36 13.8 -.02 22.15 -1.34&#xA;35.17 -5.56 38.87 -12.59 68.21 -45.39 78 -87.21 1.89 -8.07 2.24 -13.49 2.87&#xA;-43.71 .76 -36.9 1.12 -39.81 6.61 -53.66 6.44 -16.22 18.09 -30.93 31.35&#xA;-39.6 l7.5 -4.9 .28 69.33 c.29 71.89 .01 78.76 -3.91 94.33 -10.32 40.99&#xA;-33.55 74.84 -65.87 96.02 -31.96 20.94 -75.54 29.31 -112 21.51 l-9.5 -2.03&#xA;-2.55 2.79 c-2.29 2.5 -2.67 4.16 -3.8 16.15 -.77 8.21 -1.81 14.16 -2.7&#xA;15.44 -2.02 2.89 -1.86 8.96 .3 10.89 .96 .86 4 1.89 6.75 2.28 2.75 .39 5.45&#xA;1.07 6 1.5 1.61 1.27 15.95 2.97 30.5 3.62 60.91 2.72 123.73 -27.39 161.97&#xA;-77.62 18.98 -24.94 31.86 -52.23 38 -80.54 4.9 -22.6 4.99 -24.79 5.01&#xA;-128.25 l.02 -97.25 -13.25 .09 c-7.29 .05 -16.78 .73 -21.09 1.51z M625.63&#xA;367.9 c-1.95 2.06 -2.56 3.97 -2.94 9.1 -.26 3.58 -1.01 10.33 -1.66 15 -.65&#xA;4.67 -1.31 11.2 -1.47 14.5 -.16 3.3 -.78 7.12 -1.37 8.5 -1.6 3.69 -4.48&#xA;22.79 -3.73 24.75 .86 2.25 -2.1 18.49 -4.52 24.77 -1.06 2.76 -1.93 5.76&#xA;-1.93 6.67 0 4.32 -3.52 14.54 -6.93 20.12 -2.08 3.41 -5.84 9.79 -8.35 14.19&#xA;-2.51 4.4 -5.5 9.2 -6.64 10.66 -1.14 1.46 -2.08 3.51 -2.08 4.55 0 1.04&#xA;-1.56 4.34 -3.47 7.34 -1.91 3 -3.49 6.36 -3.5 7.47 -.01 1.11 -1.15 3.67&#xA;-2.53 5.7 -1.38 2.02 -2.5 4.63 -2.5 5.79 0 1.16 -1.12 3.76 -2.5 5.79 -1.38&#xA;2.02 -2.5 4.17 -2.5 4.77 0 1.34 4.25 5.44 5.64 5.44 2.17 0 19.26 -12.18&#xA;26.52 -18.9 18.41 -17.04 34.47 -44.85 41.29 -71.47 7.83 -30.53 6.05 -68.8&#xA;-4.55 -98.1 -3.5 -9.68 -5.91 -11.23 -10.27 -6.63z" fill="#cb89fe" fill-rule="evenodd" stroke="#cb89fe" stroke-linejoin="round" stroke-width="0.80"/>
<path d="M542.39 284.74 c-1.74 3.86 -2.56 7.33 -2.48 10.5 .07 2.61 -.58 6.42 -1.44&#xA;8.48 -1.78 4.25 -1.15 13.73 1.07 16.28 .72 .83 2.13 3.9 3.13 6.83 1.58 4.61&#xA;3.04 6.37 10.82 13.03 46.77 40.02 56 106.1 21.64 154.78 -13.94 19.75 -32.97&#xA;32.64 -57.25 38.77 -4.8 1.21 -9.45 2.8 -10.32 3.52 -.87 .72 -3.69 5.64&#xA;-6.28 10.93 -4.26 8.74 -4.69 10.26 -4.64 16.63 .03 4.4 .65 8.17 1.66 10.12&#xA;.89 1.71 1.92 6.17 2.31 9.91 .81 7.92 2.32 9.96 15.72 21.29 14.84 12.55&#xA;30.7 21.37 47.82 26.59 10.19 3.11 13.21 3.31 12.46 .83 -1.06 -3.51 -.89&#xA;-12.87 .33 -17.75 2.43 -9.73 2.44 -13.16 .05 -17.02 -2.18 -3.53 -2.19 -3.6&#xA;-.44 -5.53 1.04 -1.15 1.59 -1.68 1.16 -2.21 -.43 -.53 -1.83 -1.05 -4.71&#xA;-2.17 -4.44 -1.73 -14.78 -8.31 -20.37 -12.95 l-2.87 -2.39 3.87 -1.26 c4.56&#xA;-1.49 13.45 -5.56 18.32 -8.4 3.33 -1.94 3.37 -2.03 1.09 -2.56 -4.21 -.99&#xA;-4.73 -3.37 -1.73 -7.9 1.48 -2.24 2.69 -5 2.69 -6.14 0 -1.14 1.12 -3.73 2.5&#xA;-5.75 1.38 -2.02 2.51 -4.59 2.53 -5.7 .01 -1.11 1.59 -4.47 3.5 -7.47 1.91&#xA;-3 3.47 -6.3 3.47 -7.34 0 -1.04 .94 -3.08 2.08 -4.55 1.14 -1.46 4.13 -6.26&#xA;6.64 -10.66 2.51 -4.4 6.27 -10.79 8.35 -14.19 3.41 -5.58 6.93 -15.8 6.93&#xA;-20.12 0 -.91 .87 -3.91 1.93 -6.67 2.42 -6.28 5.39 -22.52 4.52 -24.77 -.75&#xA;-1.96 2.13 -21.06 3.73 -24.75 .6 -1.38 1.22 -5.2 1.37 -8.5 .16 -3.3 .82&#xA;-9.83 1.47 -14.5 .65 -4.67 1.4 -11.42 1.67 -15 .56 -7.52 1.46 -9 5.43 -9&#xA;1.58 0 2.88 -.25 2.88 -.57 0 -1.64 -9.9 -20.02 -14.6 -27.1 -15.03 -22.66&#xA;-40.07 -44.57 -65.66 -57.45 l-7.76 -3.91 -2.6 5.76z M669.9 295.61 c-11.8&#xA;7.88 -20.62 15.26 -29.81 24.97 l-7.92 8.37 5.49 8.21 c6.27 9.36 11.22 18.82&#xA;15.89 30.31 1.78 4.38 3.62 8.09 4.1 8.25 .48 .16 1.46 -.66 2.18 -1.82 1.14&#xA;-1.83 1.04 -2.4 -.76 -4.32 -2.79 -2.97 -2.73 -3.31 2.43 -14.13 2.48 -5.19&#xA;4.5 -10.64 4.5 -12.11 0 -2.87 3.86 -13.23 6.92 -18.57 1.03 -1.79 2.18 -5.9&#xA;2.56 -9.13 .38 -3.23 1.27 -7.5 1.97 -9.5 .85 -2.41 1 -4.37 .45 -5.86 -.53&#xA;-1.43 -.3 -3.47 .63 -5.72 2.57 -6.16 2.07 -6.09 -8.64 1.05z M517.52 368.39&#xA;c-3.31 3.31 -4.87 9.85 -4.12 17.26 .38 3.71 .21 7.23 -.42 8.88 -.84 2.2&#xA;-.76 3.17 .38 4.92 .78 1.19 1.66 4.62 1.96 7.62 .88 8.96 2.03 13.2 4.88&#xA;17.95 6.61 11.03 9.83 23.06 10.67 39.91 .34 6.84 1.07 12.56 1.62 12.73 1.62&#xA;.51 9.23 -10.45 13.98 -20.15 12.92 -26.36 8.43 -58.03 -11.21 -79.03 -4.86&#xA;-5.2 -13.29 -12.47 -14.46 -12.47 -.5 0 -1.98 1.07 -3.29 2.39z M472.98&#xA;615.75 c-2.26 2.87 -2.28 3.76 -.59 21.25 .24 2.48 -.23 7.28 -1.04 10.69&#xA;-1.14 4.8 -1.23 6.65 -.38 8.24 .6 1.13 1.15 4.65 1.2 7.81 .07 3.56 .78 6.9&#xA;1.89 8.76 1.02 1.72 1.57 4.08 1.29 5.53 -.41 2.12 .47 3.36 5.33 7.53 19.09&#xA;16.38 42 30.01 62.83 37.39 10.71 3.79 31.57 9.31 32.33 8.55 1.23 -1.23&#xA;-2.28 -3.07 -7.62 -4 -5.69 -1 -5.71 -1.01 -6.02 -4.83 -.18 -2.24 .32 -4.79&#xA;1.21 -6.15 .95 -1.45 1.99 -7.28 2.76 -15.58 1.05 -11.17 1.59 -13.68 3.48&#xA;-15.92 l2.23 -2.66 -8.68 -2.82 c-29.35 -9.53 -53.83 -28.01 -78.54 -59.3&#xA;-6.32 -8 -8.3 -8.77 -11.66 -4.5z" fill="#e67cee" fill-rule="evenodd" stroke="#e67cee" stroke-linejoin="round" stroke-width="0.80"/>
<path d="M383.5 275.44 c-62.91 25.53 -109.3 80.73 -124.2 147.8 l-2.73 12.27 -.31&#xA;151.75 -.31 151.75 12.28 -.02 c21.71 -.03 44.95 -3.76 56.11 -9.01 l4.45&#xA;-2.09 .45 -7.19 c.25 -3.96 .07 -7.95 -.39 -8.88 -.47 -.93 -.45 -4.52 .03 -8&#xA;1.12 -8.11 -1.29 -24.22 -3.88 -25.81 -.72 -.45 -2.95 .39 -5.36 2.02 -3.27&#xA;2.2 -15.8 7.99 -17.3 7.99 -.88 0 -.22 -223.89 .68 -233.14 4.71 -48.21 29.76&#xA;-92.63 66.85 -118.55 8.07 -5.64 9.49 -7.19 8.1 -8.85 -.69 -.83 -.66 -2.11&#xA;.08 -4.05 .59 -1.56 1.21 -5.56 1.37 -8.87 .19 -4.02 1 -7.2 2.44 -9.53 1.18&#xA;-1.92 2.15 -4.41 2.15 -5.51 0 -2.65 3.3 -11.59 5.79 -15.72 2.2 -3.64 3.7&#xA;-10.35 2.49 -11.1 -.43 -.27 -4.38 .98 -8.78 2.76z" fill="#fe8e69" fill-rule="evenodd" stroke="#fe8e69" stroke-linejoin="round" stroke-width="0.80"/>
<path d="M439 261.06 c-10.32 1.1 -25.53 4.36 -37.69 8.09 l-10.19 3.12 -.67 4.11&#xA;c-.37 2.26 -1.56 5.58 -2.66 7.38 -2.46 4.05 -5.8 13.05 -5.8 15.63 0 1.06&#xA;-1.15 3.89 -2.56 6.29 -1.44 2.46 -2.31 5.15 -1.99 6.15 .52 1.64 -.47 8.37&#xA;-2.04 13.9 -.49 1.72 -.13 2.43 1.55 3.05 1.68 .62 4.81 -.5 13.36 -4.77&#xA;19.05 -9.52 38.8 -14.74 59.17 -15.62 6.6 -.29 13.12 -.76 14.5 -1.05 l2.5&#xA;-.53 -3.27 -2.75 c-3.19 -2.68 -3.27 -2.96 -3.43 -11.16 -.28 -15.07 .88&#xA;-23.63 3.69 -27.31 1.38 -1.81 2.5 -3.8 2.5 -4.44 0 -1.33 -14.85 -1.38 -27&#xA;-.09z M441.5 350.98 c-24.55 4.94 -44.34 15.81 -61.83 33.96 -9.72 10.09&#xA;-15.5 18.29 -20.72 29.44 -15.77 33.68 -11.8 74.25 11.16 113.86 10.78 18.6&#xA;44.27 70.8 45.22 70.49 .58 -.19 1.45 -1.67 1.92 -3.29 1.02 -3.47 1.09&#xA;-42.07 .09 -43.7 -1.33 -2.16 -.94 -28.15 .44 -29.24 .99 -.78 .25 -2.67&#xA;-3.35 -8.5 -12.08 -19.55 -16.28 -31.22 -17.12 -47.6 -.72 -14.02 1.15 -23.1&#xA;7.27 -35.33 9.05 -18.08 23.44 -29.8 44.81 -36.52 1.85 -.58 1.85 -.63 0&#xA;-2.68 -2.64 -2.91 -3.19 -16.58 -.98 -24.18 .88 -3.02 1.6 -6.49 1.6 -7.71 0&#xA;-1.31 1.66 -3.73 4.09 -5.95 3.37 -3.08 3.8 -3.85 2.42 -4.38 -2.4 -.92 -4.88&#xA;-.7 -15.01 1.34z M350.67 548.67 c-.37 .37 -.67 17.58 -.67 38.25 -0 21.5&#xA;-.46 40.37 -1.06 44.08 -2.48 15.32 -9.13 29.36 -19.28 40.74 -5.13 5.75&#xA;-5.49 6.48 -4.95 9.98 .32 2.08 1.01 4.62 1.54 5.65 .53 1.03 .88 5.64 .77&#xA;10.25 -.1 4.61 -.15 9.84 -.11 11.63 .04 1.79 .05 6.74 .01 11 -.08 9.5 .35&#xA;9.62 11.3 3.38 33.56 -19.12 55.12 -48.93 60.31 -83.38 1.94 -12.84 1.86&#xA;-18.23 -.33 -23.99 -2.17 -5.71 -44.05 -68.26 -45.7 -68.26 -.63 0 -1.45 .3&#xA;-1.82 .67z" fill="#fe7f93" fill-rule="evenodd" stroke="#fe7f93" stroke-linejoin="round" stroke-width="0.80"/>
<path d="M464 261.03 c0 .71 -1.13 2.76 -2.5 4.57 -1.97 2.58 -2.65 4.96 -3.17 11.09&#xA;-.78 9.1 -.76 21.44 .04 24.61 .96 3.81 7.95 6.53 18.37 7.14 22.27 1.31&#xA;45.46 9.26 64.2 22.02 4.44 3.02 8.07 5.11 8.07 4.64 0 -.47 -.68 -1.42 -1.51&#xA;-2.1 -.83 -.69 -2.2 -3.63 -3.05 -6.54 -.85 -2.91 -2.13 -5.78 -2.86 -6.39&#xA;-2.18 -1.81 -2.88 -12.1 -1.11 -16.35 .84 -2.01 1.53 -5.8 1.53 -8.42 0 -2.64&#xA;.99 -7.14 2.21 -10.09 1.31 -3.17 2.14 -4.57 .89 -5.87 -1.25 -1.3 -4.59 -2.5&#xA;-11.6 -5.25 -18.58 -7.3 -40.49 -12.34 -59.25 -13.63 -8.05 -.56 -10.25 -.43&#xA;-10.25 .58z M452.75 353.2 c-2.98 2.78 -4.75 5.29 -4.75 6.71 0 1.25 -.72&#xA;4.75 -1.6 7.78 -1.08 3.71 -1.49 8.22 -1.25 13.87 .25 5.98 .33 8.94 2.64&#xA;10.42 2.3 1.48 6.83 1.46 15.96 1.49 14.29 .04 15.01 .15 22.88 3.31 10.37&#xA;4.17 21.05 11.67 26.56 18.64 2.37 3 4.7 5.49 5.17 5.52 .48 .03 .57 -1.83&#xA;.21 -4.19 -.36 -2.34 -.9 -6.7 -1.21 -9.69 -.31 -2.99 -1.23 -6.46 -2.04&#xA;-7.71 -.86 -1.31 -1.14 -2.81 -.68 -3.56 .44 -.71 .84 -5.79 .89 -11.29 .09&#xA;-10.62 1.37 -15.01 4.68 -16.07 3.27 -1.04 1.49 -2.66 -8.93 -8.17 -13.25&#xA;-7.01 -25.74 -10.29 -41.78 -10.98 l-12 -.52 -4.75 4.44z M414.89 522.25&#xA;c-.53 6.05 -.28 27.62 .35 28.96 1.14 2.46 1.08 40.69 -.08 44.44 -.54 1.76&#xA;-1.04 2.21 .92 5.79 1.96 3.58 6.38 10.29 15.69 24.55 11.24 17.22 17.68 26.2&#xA;25.09 35 6.55 7.77 18.31 20 19.24 20 1.64 0 1.61 -5.7 -.05 -8.5 -1.1 -1.86&#xA;-1.82 -5.19 -1.89 -8.76 -.06 -3.17 -.6 -6.68 -1.2 -7.81 -.85 -1.59 -.77&#xA;-3.45 .38 -8.24 .81 -3.4 1.29 -8.21 1.05 -10.69 -1.51 -15.87 -1.55 -17.84&#xA;-.41 -19.96 .87 -1.63 1.85 -2.11 3.61 -1.77 3.21 .61 3.05 -.36 -.97 -6.01&#xA;-1.86 -2.61 -9.36 -14.2 -16.66 -25.75 -24.84 -39.29 -40.8 -62.5 -42.97&#xA;-62.5 -1.09 0 -2.04 .56 -2.1 1.25z M505 536.25 c-2.48 .5 -12.49 .98 -22.25&#xA;1.07 -9.76 .09 -17.75 .28 -17.75 .41 -.02 .9 14.45 24.44 19.55 31.82 7.01&#xA;10.13 18.07 23.73 19.81 24.36 .85 .31 .86 .06 .02 -1 -.61 -.78 -1.42 -4.51&#xA;-1.79 -8.29 -.37 -3.78 -1.4 -8.28 -2.29 -9.99 -1.02 -1.97 -1.62 -5.69 -1.64&#xA;-10.12 -.03 -6.08 .47 -8.06 3.78 -15.01 2.1 -4.4 4.7 -9.26 5.79 -10.81 1.09&#xA;-1.54 1.82 -2.93 1.62 -3.07 -.2 -.15 -2.38 .14 -4.86 .64z" fill="#f77ac4" fill-rule="evenodd" stroke="#f77ac4" stroke-linejoin="round" stroke-width="0.80"/>
</svg>